<svg viewBox="0 0 400 400" xmlns="http://www.w3.org/2000/svg" role="img" aria-label="THE SEAT">
  <defs>
    <radialGradient id="pulse" cx="50%" cy="50%" r="50%">
      <stop offset="0%" stop-color="#ffe5b2" stop-opacity="1"/>
      <stop offset="35%" stop-color="#c9a96b" stop-opacity="0.55"/>
      <stop offset="100%" stop-color="#c9a96b" stop-opacity="0"/>
    </radialGradient>
  </defs>

  <circle cx="200" cy="200" r="195" fill="none" stroke="#c9a96b" stroke-width="1.6"/>
  <circle cx="200" cy="200" r="178" fill="none" stroke="#c9a96b" stroke-width="0.8"/>

  <g opacity="0.45" stroke="#c9a96b" stroke-width="0.35">
    <line x1="200.00" y1="164.00" x2="200.00" y2="26.00"/>
    <line x1="204.51" y1="164.28" x2="221.81" y2="27.37"/>
    <line x1="208.95" y1="165.13" x2="243.27" y2="31.47"/>
    <line x1="213.25" y1="166.53" x2="264.05" y2="38.22"/>
    <line x1="217.34" y1="168.45" x2="283.83" y2="47.52"/>
    <line x1="221.16" y1="170.88" x2="302.27" y2="59.23"/>
    <line x1="224.64" y1="173.76" x2="319.11" y2="73.16"/>
    <line x1="227.74" y1="177.05" x2="334.07" y2="89.09"/>
    <line x1="230.40" y1="180.71" x2="346.91" y2="106.77"/>
    <line x1="232.57" y1="184.67" x2="357.44" y2="125.91"/>
    <line x1="234.24" y1="188.88" x2="365.48" y2="146.23"/>
    <line x1="235.36" y1="193.25" x2="370.92" y2="167.40"/>
    <line x1="235.93" y1="197.74" x2="373.66" y2="189.07"/>
    <line x1="235.93" y1="202.26" x2="373.66" y2="210.93"/>
    <line x1="235.36" y1="206.75" x2="370.92" y2="232.60"/>
    <line x1="234.24" y1="211.12" x2="365.48" y2="253.77"/>
    <line x1="232.57" y1="215.33" x2="357.44" y2="274.09"/>
    <line x1="230.40" y1="219.29" x2="346.91" y2="293.23"/>
    <line x1="227.74" y1="222.95" x2="334.07" y2="310.91"/>
    <line x1="224.64" y1="226.24" x2="319.11" y2="326.84"/>
    <line x1="221.16" y1="229.12" x2="302.27" y2="340.77"/>
    <line x1="217.34" y1="231.55" x2="283.83" y2="352.48"/>
    <line x1="213.25" y1="233.47" x2="264.05" y2="361.78"/>
    <line x1="208.95" y1="234.87" x2="243.27" y2="368.53"/>
    <line x1="204.51" y1="235.72" x2="221.81" y2="372.63"/>
    <line x1="200.00" y1="236.00" x2="200.00" y2="374.00"/>
    <line x1="195.49" y1="235.72" x2="178.19" y2="372.63"/>
    <line x1="191.05" y1="234.87" x2="156.73" y2="368.53"/>
    <line x1="186.75" y1="233.47" x2="135.95" y2="361.78"/>
    <line x1="182.66" y1="231.55" x2="116.17" y2="352.48"/>
    <line x1="178.84" y1="229.12" x2="97.73" y2="340.77"/>
    <line x1="175.36" y1="226.24" x2="80.89" y2="326.84"/>
    <line x1="172.26" y1="222.95" x2="65.93" y2="310.91"/>
    <line x1="169.60" y1="219.29" x2="53.09" y2="293.23"/>
    <line x1="167.43" y1="215.33" x2="42.56" y2="274.09"/>
    <line x1="165.76" y1="211.12" x2="34.52" y2="253.77"/>
    <line x1="164.64" y1="206.75" x2="29.08" y2="232.60"/>
    <line x1="164.07" y1="202.26" x2="26.34" y2="210.93"/>
    <line x1="164.07" y1="197.74" x2="26.34" y2="189.07"/>
    <line x1="164.64" y1="193.25" x2="29.08" y2="167.40"/>
    <line x1="165.76" y1="188.88" x2="34.52" y2="146.23"/>
    <line x1="167.43" y1="184.67" x2="42.56" y2="125.91"/>
    <line x1="169.60" y1="180.71" x2="53.09" y2="106.77"/>
    <line x1="172.26" y1="177.05" x2="65.93" y2="89.09"/>
    <line x1="175.36" y1="173.76" x2="80.89" y2="73.16"/>
    <line x1="178.84" y1="170.88" x2="97.73" y2="59.23"/>
    <line x1="182.66" y1="168.45" x2="116.17" y2="47.52"/>
    <line x1="186.75" y1="166.53" x2="135.95" y2="38.22"/>
    <line x1="191.05" y1="165.13" x2="156.73" y2="31.47"/>
    <line x1="195.49" y1="164.28" x2="178.19" y2="27.37"/>
  </g>

  <g fill="#c9a96b">
    <circle cx="200.00" cy="13.00" r="3"/>
    <circle cx="223.44" cy="14.47" r="3"/>
    <circle cx="246.51" cy="18.87" r="3"/>
    <circle cx="268.84" cy="26.13" r="3"/>
    <circle cx="290.09" cy="36.13" r="3"/>
    <circle cx="309.92" cy="48.71" r="3"/>
    <circle cx="328.01" cy="63.68" r="3"/>
    <circle cx="344.09" cy="80.80" r="3"/>
    <circle cx="357.89" cy="99.80" r="3"/>
    <circle cx="369.20" cy="120.38" r="3"/>
    <circle cx="377.85" cy="142.21" r="3"/>
    <circle cx="383.69" cy="164.96" r="3"/>
    <circle cx="386.63" cy="188.26" r="3"/>
    <circle cx="386.63" cy="211.74" r="3"/>
    <circle cx="383.69" cy="235.04" r="3"/>
    <circle cx="377.85" cy="257.79" r="3"/>
    <circle cx="369.20" cy="279.62" r="3"/>
    <circle cx="357.89" cy="300.20" r="3"/>
    <circle cx="344.09" cy="319.20" r="3"/>
    <circle cx="328.01" cy="336.32" r="3"/>
    <circle cx="309.92" cy="351.29" r="3"/>
    <circle cx="290.09" cy="363.87" r="3"/>
    <circle cx="268.84" cy="373.87" r="3"/>
    <circle cx="246.51" cy="381.13" r="3"/>
    <circle cx="223.44" cy="385.53" r="3"/>
    <circle cx="200.00" cy="387.00" r="3"/>
    <circle cx="176.56" cy="385.53" r="3"/>
    <circle cx="153.49" cy="381.13" r="3"/>
    <circle cx="131.16" cy="373.87" r="3"/>
    <circle cx="109.91" cy="363.87" r="3"/>
    <circle cx="90.08" cy="351.29" r="3"/>
    <circle cx="71.99" cy="336.32" r="3"/>
    <circle cx="55.91" cy="319.20" r="3"/>
    <circle cx="42.11" cy="300.20" r="3"/>
    <circle cx="30.80" cy="279.62" r="3"/>
    <circle cx="22.15" cy="257.79" r="3"/>
    <circle cx="16.31" cy="235.04" r="3"/>
    <circle cx="13.37" cy="211.74" r="3"/>
    <circle cx="13.37" cy="188.26" r="3"/>
    <circle cx="16.31" cy="164.96" r="3"/>
    <circle cx="22.15" cy="142.21" r="3"/>
    <circle cx="30.80" cy="120.38" r="3"/>
    <circle cx="42.11" cy="99.80" r="3"/>
    <circle cx="55.91" cy="80.80" r="3"/>
    <circle cx="71.99" cy="63.68" r="3"/>
    <circle cx="90.08" cy="48.71" r="3"/>
    <circle cx="109.91" cy="36.13" r="3"/>
    <circle cx="131.16" cy="26.13" r="3"/>
    <circle cx="153.49" cy="18.87" r="3"/>
    <circle cx="176.56" cy="14.47" r="3"/>
  </g>

  <circle cx="200" cy="200" r="38" fill="url(#pulse)"/>
  <circle cx="200" cy="200" r="4.5" fill="#ffe5b2"/>
</svg>
